<svg xmlns="http://www.w3.org/2000/svg" width="600" height="900" viewBox="0 0 600 900" role="img" aria-labelledby="title desc"><title id="title">Le Ultime Collisioni — copertina web</title><desc id="desc">Copertina web del romanzo Le Ultime Collisioni di Claude Delavill.</desc><defs><linearGradient id="bg" x1="0" x2="0" y1="0" y2="1"><stop offset="0%" stop-color="#030611"/><stop offset="55%" stop-color="#08162d"/><stop offset="100%" stop-color="#02050c"/></linearGradient><linearGradient id="ring" x1="0" x2="1"><stop offset="0%" stop-color="#344762"/><stop offset="18%" stop-color="#a4bedf"/><stop offset="50%" stop-color="#dfe9f7"/><stop offset="78%" stop-color="#8ea8c8"/><stop offset="100%" stop-color="#2f3d55"/></linearGradient><radialGradient id="spark"><stop offset="0%" stop-color="#fff"/><stop offset="38%" stop-color="#cde4ff"/><stop offset="72%" stop-color="#6aa4ff" stop-opacity=".62"/><stop offset="100%" stop-color="#6aa4ff" stop-opacity="0"/></radialGradient><filter id="blur"><feGaussianBlur stdDeviation="7"/></filter><filter id="shadow"><feDropShadow dx="0" dy="8" stdDeviation="14" flood-color="#000814" flood-opacity=".65"/></filter></defs><rect width="600" height="900" fill="url(#bg)"/><g opacity=".55" fill="#d9ecff"><circle cx="72" cy="76" r="1.2"/><circle cx="120" cy="140" r="1.4"/><circle cx="168" cy="66" r="1.1"/><circle cx="480" cy="92" r="1.2"/><circle cx="512" cy="152" r="1.5"/><circle cx="552" cy="120" r="1.1"/><circle cx="68" cy="720" r="1.1"/><circle cx="152" cy="802" r="1.3"/><circle cx="506" cy="758" r="1.2"/></g><text x="300" y="170" text-anchor="middle" font-family="Arial,Helvetica,sans-serif" font-size="88" font-weight="700" letter-spacing="4" fill="#eef5ff">LE ULTIME</text><text x="300" y="286" text-anchor="middle" font-family="Arial,Helvetica,sans-serif" font-size="112" font-weight="800" letter-spacing="2" fill="#eef5ff">COLLISIONI</text><text x="300" y="346" text-anchor="middle" font-family="Arial,Helvetica,sans-serif" font-size="20" letter-spacing="4" fill="#9db7d8">NEL DESERTO DEGLI ACCELERATORI</text><g filter="url(#shadow)"><ellipse cx="300" cy="610" rx="247" ry="136" fill="none" stroke="url(#ring)" stroke-width="16"/><ellipse cx="300" cy="610" rx="247" ry="136" fill="none" stroke="#eff7ff" stroke-opacity=".25" stroke-width="3"/><path d="M285 740 C300 738 317 736 332 732" stroke="#0a1320" stroke-width="20" stroke-linecap="round"/></g><g transform="translate(172 642)"><circle r="66" fill="url(#spark)" filter="url(#blur)"/><circle r="16" fill="#fff"/><path d="M-70 0 C-40 -10 -20 -6 0 0 C18 7 42 14 84 6" fill="none" stroke="#d8ebff" stroke-width="4" stroke-linecap="round"/><path d="M-44 -38 C-18 -14 -8 -8 0 0 C16 15 28 20 52 30" fill="none" stroke="#e8f4ff" stroke-width="3.2" stroke-linecap="round"/><path d="M-38 35 C-12 14 -4 6 0 0 C12 -15 22 -20 46 -34" fill="none" stroke="#b8d8ff" stroke-width="3" stroke-linecap="round"/></g><text x="300" y="846" text-anchor="middle" font-family="Arial,Helvetica,sans-serif" font-size="34" letter-spacing="1" fill="#d9e7fb">Claude Delavill</text></svg>